# xmcd
# 
# Track frame offsets:
#     187
#     21862
#     48127
#     59030
#     86072
#     118000
#     137877
# 
# Disc length: 2257
# 
# Revision: 7
# Processed by: cddbd v1.5.2PL0 Copyright (c) Steve Scherf et al.
# Submitted via: BonkEnc v1.0.15
# 
DISCID=6008cf07
DTITLE=John Coltrane - Giant Steps
DYEAR=1959
DGENRE=Jazz
TTITLE0=Giant Steps
TTITLE1=Cousin Mary
TTITLE2=Countdown
TTITLE3=Spiral
TTITLE4=Syeeda's Song Flute
TTITLE5=Naima
TTITLE6=Mr. P.C.
EXTD=YEAR: 1959
EXTT0=
EXTT1=
EXTT2=
EXTT3=
EXTT4=
EXTT5=
EXTT6=
PLAYORDER=
